<svg viewBox="0 0 1342.1666259765625 400" xmlns="http://www.w3.org/2000/svg"><g><g><g><g><g><line x1="74.68000507354736" y1="374.564998626709" x2="69.68000507354736" y2="374.564998626709" style="visibility: inherit;" fill="rgb(0, 0, 0)" stroke="rgb(204, 204, 204)" stroke-width="1px"></line><line x1="74.68000507354736" y1="332.94666544596356" x2="69.68000507354736" y2="332.94666544596356" style="visibility: inherit;" fill="rgb(0, 0, 0)" stroke="rgb(204, 204, 204)" stroke-width="1px"></line><line x1="74.68000507354736" y1="291.32833226521814" x2="69.68000507354736" y2="291.32833226521814" style="visibility: inherit;" fill="rgb(0, 0, 0)" stroke="rgb(204, 204, 204)" stroke-width="1px"></line><line x1="74.68000507354736" y1="249.70999908447266" x2="69.68000507354736" y2="249.70999908447266" style="visibility: inherit;" fill="rgb(0, 0, 0)" stroke="rgb(204, 204, 204)" stroke-width="1px"></line><line x1="74.68000507354736" y1="208.09166590372723" x2="69.68000507354736" y2="208.09166590372723" style="visibility: inherit;" fill="rgb(0, 0, 0)" stroke="rgb(204, 204, 204)" stroke-width="1px"></line><line x1="74.68000507354736" y1="166.47333272298175" x2="69.68000507354736" y2="166.47333272298175" style="visibility: inherit;" fill="rgb(0, 0, 0)" stroke="rgb(204, 204, 204)" stroke-width="1px"></line><line x1="74.68000507354736" y1="124.85499954223633" x2="69.68000507354736" y2="124.85499954223633" style="visibility: inherit;" fill="rgb(0, 0, 0)" stroke="rgb(204, 204, 204)" stroke-width="1px"></line><line x1="74.68000507354736" y1="83.2366663614909" x2="69.68000507354736" y2="83.2366663614909" style="visibility: inherit;" fill="rgb(0, 0, 0)" stroke="rgb(204, 204, 204)" stroke-width="1px"></line><line x1="74.68000507354736" y1="41.61833318074548" x2="69.68000507354736" y2="41.61833318074548" style="visibility: inherit;" fill="rgb(0, 0, 0)" stroke="rgb(204, 204, 204)" stroke-width="1px"></line><line x1="74.68000507354736" y1="0" x2="69.68000507354736" y2="0" style="visibility: inherit;" fill="rgb(0, 0, 0)" stroke="rgb(204, 204, 204)" stroke-width="1px"></line></g><g transform="translate(64.68000507354736, 0)"><text style="text-anchor: end; visibility: hidden; font-family: &quot;Helvetica Neue&quot;, sans-serif; font-size: 12px; font-weight: 200;" x="0" y="374.564998626709" dx="0em" dy="0.3em" fill="rgb(50, 49, 63)" stroke="none" stroke-width="1px">-1.8e+3</text><text style="text-anchor: end; visibility: inherit; font-family: &quot;Helvetica Neue&quot;, sans-serif; font-size: 12px; font-weight: 200;" x="0" y="332.94666544596356" dx="0em" dy="0.3em" fill="rgb(50, 49, 63)" stroke="none" stroke-width="1px">-1.6e+3</text><text style="text-anchor: end; visibility: inherit; font-family: &quot;Helvetica Neue&quot;, sans-serif; font-size: 12px; font-weight: 200;" x="0" y="291.32833226521814" dx="0em" dy="0.3em" fill="rgb(50, 49, 63)" stroke="none" stroke-width="1px">-1.4e+3</text><text style="text-anchor: end; visibility: inherit; font-family: &quot;Helvetica Neue&quot;, sans-serif; font-size: 12px; font-weight: 200;" x="0" y="249.70999908447266" dx="0em" dy="0.3em" fill="rgb(50, 49, 63)" stroke="none" stroke-width="1px">-1.2e+3</text><text style="text-anchor: end; visibility: inherit; font-family: &quot;Helvetica Neue&quot;, sans-serif; font-size: 12px; font-weight: 200;" x="0" y="208.09166590372723" dx="0em" dy="0.3em" fill="rgb(50, 49, 63)" stroke="none" stroke-width="1px">-1e+3</text><text style="text-anchor: end; visibility: inherit; font-family: &quot;Helvetica Neue&quot;, sans-serif; font-size: 12px; font-weight: 200;" x="0" y="166.47333272298175" dx="0em" dy="0.3em" fill="rgb(50, 49, 63)" stroke="none" stroke-width="1px">-800</text><text style="text-anchor: end; visibility: inherit; font-family: &quot;Helvetica Neue&quot;, sans-serif; font-size: 12px; font-weight: 200;" x="0" y="124.85499954223633" dx="0em" dy="0.3em" fill="rgb(50, 49, 63)" stroke="none" stroke-width="1px">-600</text><text style="text-anchor: end; visibility: inherit; font-family: &quot;Helvetica Neue&quot;, sans-serif; font-size: 12px; font-weight: 200;" x="0" y="83.2366663614909" dx="0em" dy="0.3em" fill="rgb(50, 49, 63)" stroke="none" stroke-width="1px">-400</text><text style="text-anchor: end; visibility: inherit; font-family: &quot;Helvetica Neue&quot;, sans-serif; font-size: 12px; font-weight: 200;" x="0" y="41.61833318074548" dx="0em" dy="0.3em" fill="rgb(50, 49, 63)" stroke="none" stroke-width="1px">-200</text><text style="text-anchor: end; visibility: hidden; font-family: &quot;Helvetica Neue&quot;, sans-serif; font-size: 12px; font-weight: 200;" x="0" y="0" dx="0em" dy="0.3em" fill="rgb(50, 49, 63)" stroke="none" stroke-width="1px">0</text></g><line x1="74.68000507354736" y1="0" x2="74.68000507354736" y2="374.564998626709" fill="rgb(0, 0, 0)" stroke="rgb(204, 204, 204)" stroke-width="1px"></line></g></g><g transform="translate(74, 0)" clip-path="url(#clip_0)"><clipPath id="clip_0"><rect width="1267" height="374"></rect></clipPath><g><g><g><line x1="0" y1="0" x2="0" y2="374.564998626709" fill="rgb(0, 0, 0)" stroke="rgb(60, 60, 60)" stroke-width="1px" opacity="0.25"></line><line x1="105.62416624387106" y1="0" x2="105.62416624387106" y2="374.564998626709" fill="rgb(0, 0, 0)" stroke="rgb(60, 60, 60)" stroke-width="1px" opacity="0.25"></line><line x1="211.24833248774212" y1="0" x2="211.24833248774212" y2="374.564998626709" fill="rgb(0, 0, 0)" stroke="rgb(60, 60, 60)" stroke-width="1px" opacity="0.25"></line><line x1="316.8724987316132" y1="0" x2="316.8724987316132" y2="374.564998626709" fill="rgb(0, 0, 0)" stroke="rgb(60, 60, 60)" stroke-width="1px" opacity="0.25"></line><line x1="422.49666497548424" y1="0" x2="422.49666497548424" y2="374.564998626709" fill="rgb(0, 0, 0)" stroke="rgb(60, 60, 60)" stroke-width="1px" opacity="0.25"></line><line x1="528.1208312193553" y1="0" x2="528.1208312193553" y2="374.564998626709" fill="rgb(0, 0, 0)" stroke="rgb(60, 60, 60)" stroke-width="1px" opacity="0.25"></line><line x1="633.7449974632264" y1="0" x2="633.7449974632264" y2="374.564998626709" fill="rgb(0, 0, 0)" stroke="rgb(60, 60, 60)" stroke-width="1px" opacity="0.25"></line><line x1="739.3691637070974" y1="0" x2="739.3691637070974" y2="374.564998626709" fill="rgb(0, 0, 0)" stroke="rgb(60, 60, 60)" stroke-width="1px" opacity="0.25"></line><line x1="844.9933299509685" y1="0" x2="844.9933299509685" y2="374.564998626709" fill="rgb(0, 0, 0)" stroke="rgb(60, 60, 60)" stroke-width="1px" opacity="0.25"></line><line x1="950.6174961948395" y1="0" x2="950.6174961948395" y2="374.564998626709" fill="rgb(0, 0, 0)" stroke="rgb(60, 60, 60)" stroke-width="1px" opacity="0.25"></line><line x1="1056.2416624387106" y1="0" x2="1056.2416624387106" y2="374.564998626709" fill="rgb(0, 0, 0)" stroke="rgb(60, 60, 60)" stroke-width="1px" opacity="0.25"></line><line x1="1161.8658286825817" y1="0" x2="1161.8658286825817" y2="374.564998626709" fill="rgb(0, 0, 0)" stroke="rgb(60, 60, 60)" stroke-width="1px" opacity="0.25"></line><line x1="1267.4899949264527" y1="0" x2="1267.4899949264527" y2="374.564998626709" fill="rgb(0, 0, 0)" stroke="rgb(60, 60, 60)" stroke-width="1px" opacity="0.25"></line></g><g><line x1="0" y1="374.564998626709" x2="1267.4899949264527" y2="374.564998626709" fill="rgb(0, 0, 0)" stroke="rgb(60, 60, 60)" stroke-width="1px" opacity="0.25"></line><line x1="0" y1="332.94666544596356" x2="1267.4899949264527" y2="332.94666544596356" fill="rgb(0, 0, 0)" stroke="rgb(60, 60, 60)" stroke-width="1px" opacity="0.25"></line><line x1="0" y1="291.32833226521814" x2="1267.4899949264527" y2="291.32833226521814" fill="rgb(0, 0, 0)" stroke="rgb(60, 60, 60)" stroke-width="1px" opacity="0.25"></line><line x1="0" y1="249.70999908447266" x2="1267.4899949264527" y2="249.70999908447266" fill="rgb(0, 0, 0)" stroke="rgb(60, 60, 60)" stroke-width="1px" opacity="0.25"></line><line x1="0" y1="208.09166590372723" x2="1267.4899949264527" y2="208.09166590372723" fill="rgb(0, 0, 0)" stroke="rgb(60, 60, 60)" stroke-width="1px" opacity="0.25"></line><line x1="0" y1="166.47333272298175" x2="1267.4899949264527" y2="166.47333272298175" fill="rgb(0, 0, 0)" stroke="rgb(60, 60, 60)" stroke-width="1px" opacity="0.25"></line><line x1="0" y1="124.85499954223633" x2="1267.4899949264527" y2="124.85499954223633" fill="rgb(0, 0, 0)" stroke="rgb(60, 60, 60)" stroke-width="1px" opacity="0.25"></line><line x1="0" y1="83.2366663614909" x2="1267.4899949264527" y2="83.2366663614909" fill="rgb(0, 0, 0)" stroke="rgb(60, 60, 60)" stroke-width="1px" opacity="0.25"></line><line x1="0" y1="41.61833318074548" x2="1267.4899949264527" y2="41.61833318074548" fill="rgb(0, 0, 0)" stroke="rgb(60, 60, 60)" stroke-width="1px" opacity="0.25"></line><line x1="0" y1="0" x2="1267.4899949264527" y2="0" fill="rgb(0, 0, 0)" stroke="rgb(60, 60, 60)" stroke-width="1px" opacity="0.25"></line></g></g></g><g><g><line x1="0" y1="0" x2="1267.4899949264527" y2="0" fill="rgb(0, 0, 0)" stroke="rgb(153, 153, 153)" stroke-width="1.5px"></line></g></g><g><g><line x1="105.62416624387106" y1="0" x2="105.62416624387106" y2="374.564998626709" fill="rgb(0, 0, 0)" stroke="rgb(153, 153, 153)" stroke-width="1.5px"></line></g></g><g><g><g><g><g><path style="fill: none;" stroke="rgb(255, 112, 67)" stroke-width="2px" d="M105.62416624387106,262.8170814440508L116.18658286825816,302.17081109331434L126.74899949264528,327.51395860299755L137.3114161170324,334.12319111734877L147.87383274141948,352.80369842540955L158.4362493658066,346.43322796390726L168.9986659901937,341.4704349692873L179.56108261458078,298.8542466027202L190.1234992389679,275.62157933067147L200.685915863355,265.22476707637134L211.24833248774212,257.92063783070853L221.8107491121292,255.97425544068057L232.3731657365163,248.01143483262774L242.93558236090345,221.7565096618598L253.49799898529056,233.2992730530313L264.06041560967765,237.38350705733177L274.6228322340648,241.3572398427447L285.18524885845187,227.02002879212668L295.74766548283895,221.5359620372061L306.3100821072261,221.486109819811L316.8724987316132,214.59694957624063L327.4349153560003,229.00898854496495L337.9973319803874,224.40875665150426L348.55974860477454,229.45949193553375L359.12216522916157,215.62545774284635L369.6845818535487,213.39566447243388L380.2469984779358,210.82491260690512L390.80941510232293,227.0698154081979L401.37183172671,238.14543883435064L411.93424835109715,243.1391534401069L422.49666497548424,228.197791150622L433.0590815998714,231.78860024844315L443.6214982242584,227.6929890438632L454.18391484864554,222.20845762130014L464.7463314730326,217.7145971361574L475.30874809741977,218.8083231312171L485.8711647218069,216.60306460045283L496.433581346194,211.38318473733167L506.99599797058113,203.58346507812075L517.5584145949682,219.5169620811437L528.1208312193553,215.73977141328174L538.6832478437424,214.61004089170203L549.2456644681296,213.08948721594103L559.8080810925165,215.31806399535856L570.3704977169037,219.6537520365364L580.9329143412908,219.5734343200824L591.4953309656779,216.24333939344797L602.057747590065,217.23053418163332L612.6201642144522,212.77511928850456L623.1825808388393,216.23401574832346L633.7449974632264,217.59688352589413L644.3074140876134,207.65064110340694L654.8698307120006,211.72929811698253L665.4322473363877,212.0391480749414L675.9946639607748,213.241511664358L686.5570805851619,212.274207016988L697.1194972095491,213.89829531423433L707.6819138339362,215.58120490416096L718.2443304583231,213.58407180907415L728.8067470827102,203.12695242786248L739.3691637070974,197.53349515597404L749.9315803314845,204.44501718179157L760.4939969558716,203.31401246700707L771.0564135802587,199.97094725105467L781.6188302046459,205.71081742881876L792.181246829033,210.78338196440183L802.74366345342,213.05068187186583L813.3060800778072,218.1231001214195L823.8684967021943,221.9046058772022L834.4309133265814,213.51101633062058L844.9933299509685,215.1728334203995L855.5557465753557,215.0561861897435L866.1181631997428,215.3717465946466L876.6805798241297,216.19517309649407L887.2429964485168,210.42000524922554L897.805413072904,210.3305923373258L908.3678296972911,205.76890993976255L918.9302463216782,197.1792004689718L929.4926629460653,195.38487146627816L940.0550795704524,192.161261883813L950.6174961948395,191.2382153678908L961.1799128192266,187.35473283044917L971.7423294436138,191.3213569002139L982.3047460680009,178.43850873811968L992.867162692388,163.83194436375683L1003.4295793167751,162.5670634258783L1013.9919959411623,148.88638922388142L1024.5544125655492,142.70092934024532L1035.1168291899364,138.35469948945868L1045.6792458143234,126.5140522272585L1056.2416624387106,169.782412419181L1066.8040790630978,144.4598369551875L1077.3664956874848,116.0885160669435L1087.928912311872,70.86181045941987L1098.4913289362592,64.2372229050024L1109.0537455606461,49.295783020897204L1119.616162185033,50.9531578347532L1130.1785788094203,41.396046119652624L1140.7409954338075,55.79183959616432L1151.3034120581945,53.708294360803166L1161.8658286825817,42.345213268169346L1172.4282453069688,54.20410093383305L1182.9906619313558,32.558139227339154L1193.553078555743,29.1364564101616L1204.11549518013,17.50926041073552L1214.6779118045172,10.741966728543844L1225.2403284289044,120.84926337418989" fill="none"></path></g></g></g></g><g opacity="0.2"><g><g><g><path style="fill: none;" stroke="rgb(255, 112, 67)" stroke-width="2px" d="M105.62416624387106,262.8170814440508L116.18658286825816,325.7830488828725L126.74899949264528,351.8433802122933L137.3114161170324,341.8956485542259L147.87383274141948,377.19296876681346L158.4362493658066,337.62057394628334L168.9986659901937,334.3735615822929L179.56108261458078,236.71943484885696L190.1234992389679,241.3579078176905L200.685915863355,249.7867125648229L211.24833248774212,247.03069187688874L221.8107491121292,253.06527398265277L232.3731657365163,236.09320391141497L242.93558236090345,182.4255580373182L253.49799898529056,250.5998500547209L264.06041560967765,243.506977545529L274.6228322340648,247.31615747032455L285.18524885845187,205.51785243253224L295.74766548283895,213.31069734719816L306.3100821072261,221.41133605040844L316.8724987316132,204.26358702880563L327.4349153560003,250.62657276377004L337.9973319803874,217.50849963486738L348.55974860477454,237.0355350308035L359.12216522916157,194.87450478020938L369.6845818535487,210.05098407586493L380.2469984779358,206.96879138646142L390.80941510232293,251.43714467038478L401.37183172671,254.75886377136533L411.93424835109715,250.62972258879103L422.49666497548424,205.78575267111302L433.0590815998714,237.17481318072416L443.6214982242584,221.549572725927L454.18391484864554,213.9816608803013L464.7463314730326,210.97380660157495L475.30874809741977,220.44891209560367L485.8711647218069,213.29517683842528L496.433581346194,203.553364991106L506.99599797058113,191.88388563274717L517.5584145949682,243.41720753243038L528.1208312193553,210.07398541906267L538.6832478437424,212.91544511069156L549.2456644681296,210.80865670339708L559.8080810925165,218.66092916351977L570.3704977169037,226.15728409717636L580.9329143412908,219.45295774541407L591.4953309656779,211.24819700380786L602.057747590065,218.71132636385582L612.6201642144522,206.09199694896154L623.1825808388393,221.42236043798192L633.7449974632264,219.64118519223373L644.3074140876134,192.73127746974856L654.8698307120006,217.84728363732808L665.4322473363877,212.5039230118789L675.9946639607748,215.04505704848094L686.5570805851619,210.82325004593392L697.1194972095491,216.33442776010293L707.6819138339362,218.10556928905038L718.2443304583231,210.58837216644432L728.8067470827102,187.44127335604628L739.3691637070974,189.14330924814178L749.9315803314845,214.81230022051759L760.4939969558716,201.61750539483037L771.0564135802587,194.95634942712613L781.6188302046459,214.3206226954648L792.181246829033,218.3922287677764L802.74366345342,216.4516317330619L813.3060800778072,225.73172749574996L823.8684967021943,227.57686451087628L834.4309133265814,200.920632010748L844.9933299509685,217.66555905506792L855.5557465753557,214.8812153437594L866.1181631997428,215.8450872020012L876.6805798241297,217.43031284926536L887.2429964485168,201.75725347832272L897.805413072904,210.19647296947622L908.3678296972911,198.92638634341768L918.9302463216782,184.29463626278564L929.4926629460653,192.69337796223775L940.0550795704524,187.32584751011532L950.6174961948395,189.8536455940075L961.1799128192266,181.5295090242867L971.7423294436138,197.271293004861L982.3047460680009,159.11423649497834L992.867162692388,141.92209780221262L1003.4295793167751,160.66974201906046L1013.9919959411623,128.3653779208862L1024.5544125655492,133.42273951479117L1035.1168291899364,131.83535471327872L1045.6792458143234,108.75308133395816L1056.2416624387106,234.6849527070648L1066.8040790630978,106.4759737591973L1077.3664956874848,73.53153473457752L1087.928912311872,3.0217520481344877L1098.4913289362592,54.300341573376215L1109.0537455606461,26.883623194739357L1119.616162185033,53.439220055537305L1130.1785788094203,27.060378547001676L1140.7409954338075,77.38552981093198L1151.3034120581945,50.58297650776143L1161.8658286825817,25.300591629218673L1172.4282453069688,71.99243243232854L1182.9906619313558,0.0891966675982303L1193.553078555743,24.003932184395353L1204.11549518013,0.06846641159631872L1214.6779118045172,0.5910262052562985L1225.2403284289044,286.010208342659" fill="none"></path></g></g></g></g></g></g><g transform="translate(74, 374)" clip-path="url(#clip_1)"><clipPath id="clip_1"><rect width="1267" height="25"></rect></clipPath><g><g><line x1="0" y1="0" x2="0" y2="5" style="visibility: inherit;" fill="rgb(0, 0, 0)" stroke="rgb(204, 204, 204)" stroke-width="1px"></line><line x1="105.62416624387106" y1="0" x2="105.62416624387106" y2="5" style="visibility: inherit;" fill="rgb(0, 0, 0)" stroke="rgb(204, 204, 204)" stroke-width="1px"></line><line x1="211.24833248774212" y1="0" x2="211.24833248774212" y2="5" style="visibility: inherit;" fill="rgb(0, 0, 0)" stroke="rgb(204, 204, 204)" stroke-width="1px"></line><line x1="316.8724987316132" y1="0" x2="316.8724987316132" y2="5" style="visibility: inherit;" fill="rgb(0, 0, 0)" stroke="rgb(204, 204, 204)" stroke-width="1px"></line><line x1="422.49666497548424" y1="0" x2="422.49666497548424" y2="5" style="visibility: inherit;" fill="rgb(0, 0, 0)" stroke="rgb(204, 204, 204)" stroke-width="1px"></line><line x1="528.1208312193553" y1="0" x2="528.1208312193553" y2="5" style="visibility: inherit;" fill="rgb(0, 0, 0)" stroke="rgb(204, 204, 204)" stroke-width="1px"></line><line x1="633.7449974632264" y1="0" x2="633.7449974632264" y2="5" style="visibility: inherit;" fill="rgb(0, 0, 0)" stroke="rgb(204, 204, 204)" stroke-width="1px"></line><line x1="739.3691637070974" y1="0" x2="739.3691637070974" y2="5" style="visibility: inherit;" fill="rgb(0, 0, 0)" stroke="rgb(204, 204, 204)" stroke-width="1px"></line><line x1="844.9933299509685" y1="0" x2="844.9933299509685" y2="5" style="visibility: inherit;" fill="rgb(0, 0, 0)" stroke="rgb(204, 204, 204)" stroke-width="1px"></line><line x1="950.6174961948395" y1="0" x2="950.6174961948395" y2="5" style="visibility: inherit;" fill="rgb(0, 0, 0)" stroke="rgb(204, 204, 204)" stroke-width="1px"></line><line x1="1056.2416624387106" y1="0" x2="1056.2416624387106" y2="5" style="visibility: inherit;" fill="rgb(0, 0, 0)" stroke="rgb(204, 204, 204)" stroke-width="1px"></line><line x1="1161.8658286825817" y1="0" x2="1161.8658286825817" y2="5" style="visibility: inherit;" fill="rgb(0, 0, 0)" stroke="rgb(204, 204, 204)" stroke-width="1px"></line><line x1="1267.4899949264527" y1="0" x2="1267.4899949264527" y2="5" style="visibility: inherit;" fill="rgb(0, 0, 0)" stroke="rgb(204, 204, 204)" stroke-width="1px"></line></g><g transform="translate(0, 8)"><text style="text-anchor: middle; visibility: hidden; font-family: &quot;Helvetica Neue&quot;, sans-serif; font-size: 12px; font-weight: 200;" x="0" y="0" dx="0em" dy="0.95em" fill="rgb(50, 49, 63)" stroke="none" stroke-width="1px">-10</text><text style="text-anchor: middle; visibility: inherit; font-family: &quot;Helvetica Neue&quot;, sans-serif; font-size: 12px; font-weight: 200;" x="105.62416624387106" y="0" dx="0em" dy="0.95em" fill="rgb(50, 49, 63)" stroke="none" stroke-width="1px">0</text><text style="text-anchor: middle; visibility: inherit; font-family: &quot;Helvetica Neue&quot;, sans-serif; font-size: 12px; font-weight: 200;" x="211.24833248774212" y="0" dx="0em" dy="0.95em" fill="rgb(50, 49, 63)" stroke="none" stroke-width="1px">10</text><text style="text-anchor: middle; visibility: inherit; font-family: &quot;Helvetica Neue&quot;, sans-serif; font-size: 12px; font-weight: 200;" x="316.8724987316132" y="0" dx="0em" dy="0.95em" fill="rgb(50, 49, 63)" stroke="none" stroke-width="1px">20</text><text style="text-anchor: middle; visibility: inherit; font-family: &quot;Helvetica Neue&quot;, sans-serif; font-size: 12px; font-weight: 200;" x="422.49666497548424" y="0" dx="0em" dy="0.95em" fill="rgb(50, 49, 63)" stroke="none" stroke-width="1px">30</text><text style="text-anchor: middle; visibility: inherit; font-family: &quot;Helvetica Neue&quot;, sans-serif; font-size: 12px; font-weight: 200;" x="528.1208312193553" y="0" dx="0em" dy="0.95em" fill="rgb(50, 49, 63)" stroke="none" stroke-width="1px">40</text><text style="text-anchor: middle; visibility: inherit; font-family: &quot;Helvetica Neue&quot;, sans-serif; font-size: 12px; font-weight: 200;" x="633.7449974632264" y="0" dx="0em" dy="0.95em" fill="rgb(50, 49, 63)" stroke="none" stroke-width="1px">50</text><text style="text-anchor: middle; visibility: inherit; font-family: &quot;Helvetica Neue&quot;, sans-serif; font-size: 12px; font-weight: 200;" x="739.3691637070974" y="0" dx="0em" dy="0.95em" fill="rgb(50, 49, 63)" stroke="none" stroke-width="1px">60</text><text style="text-anchor: middle; visibility: inherit; font-family: &quot;Helvetica Neue&quot;, sans-serif; font-size: 12px; font-weight: 200;" x="844.9933299509685" y="0" dx="0em" dy="0.95em" fill="rgb(50, 49, 63)" stroke="none" stroke-width="1px">70</text><text style="text-anchor: middle; visibility: inherit; font-family: &quot;Helvetica Neue&quot;, sans-serif; font-size: 12px; font-weight: 200;" x="950.6174961948395" y="0" dx="0em" dy="0.95em" fill="rgb(50, 49, 63)" stroke="none" stroke-width="1px">80</text><text style="text-anchor: middle; visibility: inherit; font-family: &quot;Helvetica Neue&quot;, sans-serif; font-size: 12px; font-weight: 200;" x="1056.2416624387106" y="0" dx="0em" dy="0.95em" fill="rgb(50, 49, 63)" stroke="none" stroke-width="1px">90</text><text style="text-anchor: middle; visibility: inherit; font-family: &quot;Helvetica Neue&quot;, sans-serif; font-size: 12px; font-weight: 200;" x="1161.8658286825817" y="0" dx="0em" dy="0.95em" fill="rgb(50, 49, 63)" stroke="none" stroke-width="1px">100</text><text style="text-anchor: middle; visibility: hidden; font-family: &quot;Helvetica Neue&quot;, sans-serif; font-size: 12px; font-weight: 200;" x="1267.4899949264527" y="0" dx="0em" dy="0.95em" fill="rgb(50, 49, 63)" stroke="none" stroke-width="1px">110</text></g><line x1="0" y1="0" x2="1267.4899949264527" y2="0" fill="rgb(0, 0, 0)" stroke="rgb(204, 204, 204)" stroke-width="1px"></line></g></g></g></g></svg>